<svg width="15" height="15" viewBox="0 0 15 15" fill="none" xmlns="http://www.w3.org/2000/svg">
<path d="M6.5625 13.125C6.5625 13.125 5.625 13.125 5.625 12.1875C5.625 11.25 6.5625 8.4375 10.3125 8.4375C14.0625 8.4375 15 11.25 15 12.1875C15 13.125 14.0625 13.125 14.0625 13.125H6.5625ZM10.3125 7.5C11.0584 7.5 11.7738 7.20368 12.3012 6.67624C12.8287 6.14879 13.125 5.43342 13.125 4.6875C13.125 3.94158 12.8287 3.22621 12.3012 2.69876C11.7738 2.17132 11.0584 1.875 10.3125 1.875C9.56658 1.875 8.85121 2.17132 8.32376 2.69876C7.79632 3.22621 7.5 3.94158 7.5 4.6875C7.5 5.43342 7.79632 6.14879 8.32376 6.67624C8.85121 7.20368 9.56658 7.5 10.3125 7.5ZM4.89 13.125C4.75109 12.8323 4.68178 12.5114 4.6875 12.1875C4.6875 10.9172 5.325 9.60938 6.5025 8.7C5.91486 8.51853 5.30248 8.42997 4.6875 8.4375C0.9375 8.4375 0 11.25 0 12.1875C0 13.125 0.9375 13.125 0.9375 13.125H4.89ZM4.21875 7.5C4.84035 7.5 5.43649 7.25307 5.87603 6.81353C6.31557 6.37399 6.5625 5.77785 6.5625 5.15625C6.5625 4.53465 6.31557 3.93851 5.87603 3.49897C5.43649 3.05943 4.84035 2.8125 4.21875 2.8125C3.59715 2.8125 3.00101 3.05943 2.56147 3.49897C2.12193 3.93851 1.875 4.53465 1.875 5.15625C1.875 5.77785 2.12193 6.37399 2.56147 6.81353C3.00101 7.25307 3.59715 7.5 4.21875 7.5Z" fill="black"/>
</svg>
