<svg width="15" height="15" viewBox="0 0 15 15" fill="none" xmlns="http://www.w3.org/2000/svg">
<path d="M8.16281 1.40625C7.987 1.23049 7.74859 1.13176 7.5 1.13176C7.25141 1.13176 7.01299 1.23049 6.83718 1.40625L0.605622 7.63687C0.56204 7.68045 0.527468 7.73219 0.503881 7.78914C0.480295 7.84608 0.468155 7.90711 0.468155 7.96875C0.468155 8.03038 0.480295 8.09141 0.503881 8.14836C0.527468 8.2053 0.56204 8.25704 0.605622 8.30062C0.693641 8.38864 0.81302 8.43809 0.937497 8.43809C0.999132 8.43809 1.06016 8.42595 1.11711 8.40236C1.17405 8.37878 1.22579 8.3442 1.26937 8.30062L7.5 2.06906L13.7306 8.30062C13.8186 8.38864 13.938 8.43809 14.0625 8.43809C14.187 8.43809 14.3064 8.38864 14.3944 8.30062C14.4824 8.2126 14.5318 8.09322 14.5318 7.96875C14.5318 7.84427 14.4824 7.72489 14.3944 7.63687L12.1875 5.43093V2.34375C12.1875 2.21943 12.1381 2.1002 12.0502 2.01229C11.9623 1.92438 11.8431 1.875 11.7187 1.875H10.7812C10.6569 1.875 10.5377 1.92438 10.4498 2.01229C10.3619 2.1002 10.3125 2.21943 10.3125 2.34375V3.55593L8.16281 1.40625Z" fill="black"/>
<path d="M7.5 3.08719L13.125 8.71219V12.6563C13.125 13.0292 12.9768 13.3869 12.7131 13.6506C12.4494 13.9143 12.0917 14.0625 11.7188 14.0625H3.28125C2.90829 14.0625 2.5506 13.9143 2.28688 13.6506C2.02316 13.3869 1.875 13.0292 1.875 12.6563V8.71219L7.5 3.08719Z" fill="black"/>
</svg>
