<svg width="15" height="15" viewBox="0 0 15 15" fill="none" xmlns="http://www.w3.org/2000/svg">
<g clip-path="url(#clip0_22_27)">
<path fill-rule="evenodd" clip-rule="evenodd" d="M5.60477 0.9375H11.2095V7.5C11.2096 7.58294 11.1876 7.66439 11.146 7.73606C11.1044 7.80772 11.0446 7.86702 10.9728 7.90791C10.9009 7.94881 10.8194 7.96982 10.7368 7.96881C10.6542 7.96781 10.5733 7.94482 10.5024 7.90219L8.40715 6.64031L6.3119 7.90313C6.24095 7.9458 6.15998 7.96879 6.07726 7.96976C5.99455 7.97072 5.91307 7.94962 5.84114 7.90862C5.76922 7.86762 5.70943 7.80818 5.6679 7.73639C5.62637 7.66459 5.60459 7.58302 5.60477 7.5V0.9375Z" fill="black"/>
<path d="M2.80238 0H12.1437C12.6392 0 13.1144 0.197544 13.4647 0.549175C13.8151 0.900806 14.0119 1.37772 14.0119 1.875V13.125C14.0119 13.6223 13.8151 14.0992 13.4647 14.4508C13.1144 14.8025 12.6392 15 12.1437 15H2.80238C2.30689 15 1.83169 14.8025 1.48133 14.4508C1.13096 14.0992 0.934128 13.6223 0.934128 13.125V12.1875H1.86826V13.125C1.86826 13.3736 1.96667 13.6121 2.14186 13.7879C2.31704 13.9637 2.55464 14.0625 2.80238 14.0625H12.1437C12.3914 14.0625 12.629 13.9637 12.8042 13.7879C12.9794 13.6121 13.0778 13.3736 13.0778 13.125V1.875C13.0778 1.62636 12.9794 1.3879 12.8042 1.21209C12.629 1.03627 12.3914 0.9375 12.1437 0.9375H2.80238C2.55464 0.9375 2.31704 1.03627 2.14186 1.21209C1.96667 1.3879 1.86826 1.62636 1.86826 1.875V2.8125H0.934128V1.875C0.934128 1.37772 1.13096 0.900806 1.48133 0.549175C1.83169 0.197544 2.30689 0 2.80238 0Z" fill="black"/>
<path d="M0.934128 4.6875V4.21875C0.934128 4.09443 0.983336 3.9752 1.07093 3.88729C1.15852 3.79939 1.27732 3.75 1.40119 3.75C1.52506 3.75 1.64386 3.79939 1.73146 3.88729C1.81905 3.9752 1.86826 4.09443 1.86826 4.21875V4.6875H2.33532C2.45919 4.6875 2.57799 4.73689 2.66558 4.82479C2.75317 4.9127 2.80238 5.03193 2.80238 5.15625C2.80238 5.28057 2.75317 5.3998 2.66558 5.48771C2.57799 5.57561 2.45919 5.625 2.33532 5.625H0.467064C0.343191 5.625 0.224391 5.57561 0.1368 5.48771C0.0492084 5.3998 0 5.28057 0 5.15625C0 5.03193 0.0492084 4.9127 0.1368 4.82479C0.224391 4.73689 0.343191 4.6875 0.467064 4.6875H0.934128ZM0.934128 7.5V7.03125C0.934128 6.90693 0.983336 6.7877 1.07093 6.69979C1.15852 6.61189 1.27732 6.5625 1.40119 6.5625C1.52506 6.5625 1.64386 6.61189 1.73146 6.69979C1.81905 6.7877 1.86826 6.90693 1.86826 7.03125V7.5H2.33532C2.45919 7.5 2.57799 7.54939 2.66558 7.63729C2.75317 7.7252 2.80238 7.84443 2.80238 7.96875C2.80238 8.09307 2.75317 8.2123 2.66558 8.30021C2.57799 8.38811 2.45919 8.4375 2.33532 8.4375H0.467064C0.343191 8.4375 0.224391 8.38811 0.1368 8.30021C0.0492084 8.2123 0 8.09307 0 7.96875C0 7.84443 0.0492084 7.7252 0.1368 7.63729C0.224391 7.54939 0.343191 7.5 0.467064 7.5H0.934128ZM0.934128 10.3125V9.84375C0.934128 9.71943 0.983336 9.6002 1.07093 9.51229C1.15852 9.42439 1.27732 9.375 1.40119 9.375C1.52506 9.375 1.64386 9.42439 1.73146 9.51229C1.81905 9.6002 1.86826 9.71943 1.86826 9.84375V10.3125H2.33532C2.45919 10.3125 2.57799 10.3619 2.66558 10.4498C2.75317 10.5377 2.80238 10.6569 2.80238 10.7812C2.80238 10.9056 2.75317 11.0248 2.66558 11.1127C2.57799 11.2006 2.45919 11.25 2.33532 11.25H0.467064C0.343191 11.25 0.224391 11.2006 0.1368 11.1127C0.0492084 11.0248 0 10.9056 0 10.7812C0 10.6569 0.0492084 10.5377 0.1368 10.4498C0.224391 10.3619 0.343191 10.3125 0.467064 10.3125H0.934128Z" fill="black"/>
</g>
<defs>
<clipPath id="clip0_22_27">
<rect width="14.946" height="15" fill="white"/>
</clipPath>
</defs>
</svg>
