<svg width="16" height="16" viewBox="0 0 16 16" fill="none" xmlns="http://www.w3.org/2000/svg">
<g clip-path="url(#clip0_24_16)">
<path fill-rule="evenodd" clip-rule="evenodd" d="M6 12.5C6 12.6326 6.05268 12.7598 6.14645 12.8536C6.24021 12.9473 6.36739 13 6.5 13H14.5C14.6326 13 14.7598 12.9473 14.8536 12.8536C14.9473 12.7598 15 12.6326 15 12.5V3.5C15 3.36739 14.9473 3.24021 14.8536 3.14645C14.7598 3.05268 14.6326 3 14.5 3H6.5C6.36739 3 6.24021 3.05268 6.14645 3.14645C6.05268 3.24021 6 3.36739 6 3.5V5.5C6 5.63261 5.94732 5.75979 5.85355 5.85355C5.75979 5.94732 5.63261 6 5.5 6C5.36739 6 5.24021 5.94732 5.14645 5.85355C5.05268 5.75979 5 5.63261 5 5.5V3.5C5 3.10218 5.15804 2.72064 5.43934 2.43934C5.72064 2.15804 6.10218 2 6.5 2H14.5C14.8978 2 15.2794 2.15804 15.5607 2.43934C15.842 2.72064 16 3.10218 16 3.5V12.5C16 12.8978 15.842 13.2794 15.5607 13.5607C15.2794 13.842 14.8978 14 14.5 14H6.5C6.10218 14 5.72064 13.842 5.43934 13.5607C5.15804 13.2794 5 12.8978 5 12.5V10.5C5 10.3674 5.05268 10.2402 5.14645 10.1464C5.24021 10.0527 5.36739 10 5.5 10C5.63261 10 5.75979 10.0527 5.85355 10.1464C5.94732 10.2402 6 10.3674 6 10.5V12.5Z" fill="black"/>
<path fill-rule="evenodd" clip-rule="evenodd" d="M0.145994 8.354C0.0994303 8.30755 0.0624874 8.25238 0.037281 8.19163C0.0120745 8.13089 -0.000900269 8.06577 -0.000900269 8C-0.000900269 7.93423 0.0120745 7.86911 0.037281 7.80836C0.0624874 7.74762 0.0994303 7.69244 0.145994 7.646L3.14599 4.646C3.19248 4.59951 3.24767 4.56263 3.30841 4.53748C3.36915 4.51232 3.43425 4.49937 3.49999 4.49937C3.56574 4.49937 3.63084 4.51232 3.69158 4.53748C3.75232 4.56263 3.80751 4.59951 3.85399 4.646C3.90048 4.69249 3.93736 4.74768 3.96252 4.80841C3.98768 4.86915 4.00063 4.93425 4.00063 5C4.00063 5.06574 3.98768 5.13084 3.96252 5.19158C3.93736 5.25232 3.90048 5.30751 3.85399 5.354L1.70699 7.5H10.5C10.6326 7.5 10.7598 7.55268 10.8535 7.64645C10.9473 7.74021 11 7.86739 11 8C11 8.13261 10.9473 8.25978 10.8535 8.35355C10.7598 8.44732 10.6326 8.5 10.5 8.5H1.70699L3.85399 10.646C3.90048 10.6925 3.93736 10.7477 3.96252 10.8084C3.98768 10.8692 4.00063 10.9343 4.00063 11C4.00063 11.0657 3.98768 11.1308 3.96252 11.1916C3.93736 11.2523 3.90048 11.3075 3.85399 11.354C3.80751 11.4005 3.75232 11.4374 3.69158 11.4625C3.63084 11.4877 3.56574 11.5006 3.49999 11.5006C3.43425 11.5006 3.36915 11.4877 3.30841 11.4625C3.24767 11.4374 3.19248 11.4005 3.14599 11.354L0.145994 8.354Z" fill="black"/>
</g>
<defs>
<clipPath id="clip0_24_16">
<rect width="16" height="16" fill="white"/>
</clipPath>
</defs>
</svg>
