<svg width="15" height="15" viewBox="0 0 15 15" fill="none" xmlns="http://www.w3.org/2000/svg">
<g clip-path="url(#clip0_24_32)">
<path d="M12.0312 14.4352C12.9015 14.4352 13.7361 14.1 14.3514 13.5033C14.9668 12.9066 15.3125 12.0973 15.3125 11.2534C15.3125 10.4096 14.9668 9.60025 14.3514 9.00354C13.7361 8.40684 12.9015 8.07161 12.0312 8.07161C11.161 8.07161 10.3264 8.40684 9.71106 9.00354C9.0957 9.60025 8.75 10.4096 8.75 11.2534C8.75 12.0973 9.0957 12.9066 9.71106 13.5033C10.3264 14.1 11.161 14.4352 12.0312 14.4352ZM12.5 9.88979V10.7989H13.4375C13.5618 10.7989 13.681 10.8468 13.769 10.932C13.8569 11.0173 13.9062 11.1329 13.9062 11.2534C13.9062 11.374 13.8569 11.4896 13.769 11.5748C13.681 11.6601 13.5618 11.708 13.4375 11.708H12.5V12.6171C12.5 12.7376 12.4506 12.8532 12.3627 12.9385C12.2748 13.0237 12.1556 13.0716 12.0312 13.0716C11.9069 13.0716 11.7877 13.0237 11.6998 12.9385C11.6119 12.8532 11.5625 12.7376 11.5625 12.6171V11.708H10.625C10.5007 11.708 10.3815 11.6601 10.2935 11.5748C10.2056 11.4896 10.1562 11.374 10.1562 11.2534C10.1562 11.1329 10.2056 11.0173 10.2935 10.932C10.3815 10.8468 10.5007 10.7989 10.625 10.7989H11.5625V9.88979C11.5625 9.76924 11.6119 9.65362 11.6998 9.56838C11.7877 9.48314 11.9069 9.43525 12.0312 9.43525C12.1556 9.43525 12.2748 9.48314 12.3627 9.56838C12.4506 9.65362 12.5 9.76924 12.5 9.88979ZM10.625 4.43525C10.625 5.15856 10.3287 5.85226 9.80124 6.36372C9.27379 6.87518 8.55842 7.16252 7.8125 7.16252C7.06658 7.16252 6.35121 6.87518 5.82376 6.36372C5.29632 5.85226 5 5.15856 5 4.43525C5 3.71193 5.29632 3.01824 5.82376 2.50677C6.35121 1.99531 7.06658 1.70797 7.8125 1.70797C8.55842 1.70797 9.27379 1.99531 9.80124 2.50677C10.3287 3.01824 10.625 3.71193 10.625 4.43525Z" fill="black"/>
<path d="M1 11.708C1 12.6171 1.9375 12.6171 1.9375 12.6171H6.865C6.70575 12.179 6.62459 11.7179 6.625 11.2534C6.62499 10.6688 6.75419 10.0911 7.00388 9.55898C7.25357 9.0269 7.61796 8.55289 8.0725 8.16888C7.635 8.10525 7.1525 8.07282 6.625 8.07161C1.9375 8.07161 1 10.7989 1 11.708Z" fill="black"/>
</g>
<defs>
<clipPath id="clip0_24_32">
<rect width="15" height="13.6364" fill="white" transform="translate(0 0.798883)"/>
</clipPath>
</defs>
</svg>
