<svg width="15" height="15" viewBox="0 0 15 15" fill="none" xmlns="http://www.w3.org/2000/svg">
<path fill-rule="evenodd" clip-rule="evenodd" d="M1.875 2.34375C1.75068 2.34375 1.63145 2.39314 1.54354 2.48104C1.45564 2.56895 1.40625 2.68818 1.40625 2.8125V3.75C1.40625 3.87432 1.45564 3.99355 1.54354 4.08146C1.63145 4.16936 1.75068 4.21875 1.875 4.21875H2.8125C2.93682 4.21875 3.05605 4.16936 3.14396 4.08146C3.23186 3.99355 3.28125 3.87432 3.28125 3.75V2.8125C3.28125 2.68818 3.23186 2.56895 3.14396 2.48104C3.05605 2.39314 2.93682 2.34375 2.8125 2.34375H1.875ZM2.8125 2.8125H1.875V3.75H2.8125V2.8125Z" fill="black"/>
<path d="M4.6875 3.28125C4.6875 3.15693 4.73689 3.0377 4.82479 2.94979C4.9127 2.86189 5.03193 2.8125 5.15625 2.8125H13.5938C13.7181 2.8125 13.8373 2.86189 13.9252 2.94979C14.0131 3.0377 14.0625 3.15693 14.0625 3.28125C14.0625 3.40557 14.0131 3.5248 13.9252 3.61271C13.8373 3.70061 13.7181 3.75 13.5938 3.75H5.15625C5.03193 3.75 4.9127 3.70061 4.82479 3.61271C4.73689 3.5248 4.6875 3.40557 4.6875 3.28125ZM5.15625 6.5625C5.03193 6.5625 4.9127 6.61189 4.82479 6.69979C4.73689 6.7877 4.6875 6.90693 4.6875 7.03125C4.6875 7.15557 4.73689 7.2748 4.82479 7.36271C4.9127 7.45061 5.03193 7.5 5.15625 7.5H13.5938C13.7181 7.5 13.8373 7.45061 13.9252 7.36271C14.0131 7.2748 14.0625 7.15557 14.0625 7.03125C14.0625 6.90693 14.0131 6.7877 13.9252 6.69979C13.8373 6.61189 13.7181 6.5625 13.5938 6.5625H5.15625ZM5.15625 10.3125C5.03193 10.3125 4.9127 10.3619 4.82479 10.4498C4.73689 10.5377 4.6875 10.6569 4.6875 10.7812C4.6875 10.9056 4.73689 11.0248 4.82479 11.1127C4.9127 11.2006 5.03193 11.25 5.15625 11.25H13.5938C13.7181 11.25 13.8373 11.2006 13.9252 11.1127C14.0131 11.0248 14.0625 10.9056 14.0625 10.7812C14.0625 10.6569 14.0131 10.5377 13.9252 10.4498C13.8373 10.3619 13.7181 10.3125 13.5938 10.3125H5.15625Z" fill="black"/>
<path fill-rule="evenodd" clip-rule="evenodd" d="M1.40625 6.6875C1.40625 6.56318 1.45564 6.44395 1.54354 6.35604C1.63145 6.26814 1.75068 6.21875 1.875 6.21875H2.8125C2.93682 6.21875 3.05605 6.26814 3.14396 6.35604C3.23186 6.44395 3.28125 6.56318 3.28125 6.6875V7.625C3.28125 7.74932 3.23186 7.86855 3.14396 7.95646C3.05605 8.04436 2.93682 8.09375 2.8125 8.09375H1.875C1.75068 8.09375 1.63145 8.04436 1.54354 7.95646C1.45564 7.86855 1.40625 7.74932 1.40625 7.625V6.6875ZM1.875 6.6875H2.8125V7.625H1.875V6.6875ZM1.875 9.96875C1.75068 9.96875 1.63145 10.0181 1.54354 10.106C1.45564 10.194 1.40625 10.3132 1.40625 10.4375V11.375C1.40625 11.4993 1.45564 11.6185 1.54354 11.7065C1.63145 11.7944 1.75068 11.8438 1.875 11.8438H2.8125C2.93682 11.8438 3.05605 11.7944 3.14396 11.7065C3.23186 11.6185 3.28125 11.4993 3.28125 11.375V10.4375C3.28125 10.3132 3.23186 10.194 3.14396 10.106C3.05605 10.0181 2.93682 9.96875 2.8125 9.96875H1.875ZM2.8125 10.4375H1.875V11.375H2.8125V10.4375Z" fill="black"/>
</svg>
